<?xml version="1.0" encoding="UTF-8" standalone="no"?>
<svg width="84px" height="91px" viewBox="0 0 84 91" version="1.1" xmlns="http://www.w3.org/2000/svg" xmlns:xlink="http://www.w3.org/1999/xlink">
    <!-- Generator: Sketch 3.7.2 (28276) - http://www.bohemiancoding.com/sketch -->
    <title>Shape</title>
    <desc>Created with Sketch.</desc>
    <defs></defs>
    <g id="Page-1" stroke="none" stroke-width="1" fill="none" fill-rule="evenodd">
        <path d="M58.8,90.4 L24.9,90.4 C23.9,90.4 23.1,89.6 23.1,88.6 C23.1,87.6 23.9,86.8 24.9,86.8 L40,86.8 L40,81.7 C40,80.7 40.8,79.9 41.8,79.9 C42.8,79.9 43.6,80.7 43.6,81.7 L43.6,86.8 L58.7,86.8 C59.7,86.8 60.5,87.6 60.5,88.6 C60.5,89.6 59.8,90.4 58.8,90.4 L58.8,90.4 Z M2.2,55.7 C3.2,55.7 4,54.9 4,53.9 L4,20.2 C4,19.8 4.3,19.5 4.7,19.5 L11,19.5 C12,19.5 12.8,18.7 12.8,17.7 C12.8,16.7 12,15.9 11,15.9 L4.7,15.9 C2.3,15.9 0.4,17.8 0.4,20.2 L0.4,53.8 C0.4,54.8 1.2,55.7 2.2,55.7 L2.2,55.7 Z M0,61.3 C0,61.7 0.1,62.1 0.3,62.3 L0.3,71.5 C0.3,73.9 2.2,75.8 4.6,75.8 L79,75.8 C81.4,75.8 83.3,73.9 83.3,71.5 L83.3,20.2 C83.3,17.8 81.4,15.9 79,15.9 L70.9,15.9 C69.9,15.9 69.1,16.7 69.1,17.7 C69.1,18.7 69.9,19.5 70.9,19.5 L79,19.5 C79.4,19.5 79.7,19.8 79.7,20.2 L79.7,71.4 C79.7,71.8 79.4,72.1 79,72.1 L4.7,72.1 C4.3,72.1 4,71.8 4,71.4 L4,63 L74,63 C75,63 75.8,62.2 75.8,61.2 C75.8,60.2 75,59.4 74,59.4 L1.8,59.4 C0.8,59.4 0,60.2 0,61.3 L0,61.3 Z M39.4,67.4 C39.4,68.8 40.5,69.8 41.8,69.8 C43.1,69.8 44.2,68.7 44.2,67.4 C44.2,66 43.1,65 41.8,65 C40.5,65 39.4,66.1 39.4,67.4 L39.4,67.4 Z M37.8,12.6 C38,12.9 38.2,13.3 38.2,13.7 L38.2,51.7 C38.2,52.7 37.4,53.5 36.4,53.5 C35.4,53.5 34.6,52.7 34.6,51.7 L34.6,17.4 L29.2,17.4 L29.2,51.7 C29.2,52.7 28.4,53.5 27.4,53.5 C26.4,53.5 25.6,52.7 25.6,51.7 L25.6,17.4 L20.2,17.4 L20.2,51.8 C20.2,52.8 19.4,53.6 18.4,53.6 C17.4,53.6 16.6,52.8 16.6,51.8 L16.6,13.7 C16.6,13.3 16.7,12.9 17,12.6 L26,0.7 C26.3,0.2 26.9,0 27.5,0 C28.1,0 28.6,0.3 29,0.7 L37.8,12.6 L37.8,12.6 Z M20.5,13.7 L34,13.7 L27.2,4.8 L20.5,13.7 L20.5,13.7 Z M63.8,53.5 C64.8,53.5 65.6,52.7 65.6,51.7 L65.6,14 C65.6,13 64.8,12.2 63.8,12.2 L45.7,12.2 C44.7,12.2 43.9,13 43.9,14 L43.9,51.7 C43.9,52.7 44.7,53.5 45.7,53.5 C46.7,53.5 47.5,52.7 47.5,51.7 L47.5,15.8 L61.9,15.8 L61.9,19.6 L58,19.6 C57,19.6 56.2,20.4 56.2,21.4 C56.2,22.4 57,23.2 58,23.2 L61.9,23.2 L61.9,26.9 L58,26.9 C57,26.9 56.2,27.7 56.2,28.7 C56.2,29.7 57,30.5 58,30.5 L61.9,30.5 L61.9,33.2 L58,33.2 C57,33.2 56.2,34 56.2,35 C56.2,36 57,36.8 58,36.8 L61.9,36.8 L61.9,40.5 L58,40.5 C57,40.5 56.2,41.3 56.2,42.3 C56.2,43.3 57,44.1 58,44.1 L61.9,44.1 L61.9,47.3 L58,47.3 C57,47.3 56.2,48.1 56.2,49.1 C56.2,50.1 57,50.9 58,50.9 L61.9,50.9 L61.9,51.4 C62,52.7 62.8,53.5 63.8,53.5 L63.8,53.5 Z" id="Shape" fill="#000000"></path>
    </g>
</svg>