<?xml version="1.0" encoding="UTF-8" standalone="no"?>
<svg width="84px" height="90px" viewBox="0 0 84 90" version="1.1" xmlns="http://www.w3.org/2000/svg" xmlns:xlink="http://www.w3.org/1999/xlink">
    <!-- Generator: Sketch 3.7.2 (28276) - http://www.bohemiancoding.com/sketch -->
    <title>develop</title>
    <desc>Created with Sketch.</desc>
    <defs></defs>
    <g id="Page-1" stroke="none" stroke-width="1" fill="none" fill-rule="evenodd">
        <path d="M16.0020343,2.68357307 L16.0020343,52.474054 C16.0021247,53.3925471 16.7357279,54.1371099 17.6407012,54.1372016 L63.5233727,54.1372016 C64.428346,54.1371099 65.1619492,53.3925471 65.1620395,52.474054 L65.1620395,48.731972 L65.1620395,45.6135702 L65.1620395,20.2505695 L65.1620395,17.8597948 C65.1703905,17.2600086 64.8599016,16.7021204 64.3494637,16.3997539 C63.8390257,16.0973873 63.2077197,16.0973873 62.6972817,16.3997539 C62.1868438,16.7021204 61.8763549,17.2600086 61.8847059,17.8597948 L61.8847059,20.2505695 L61.8847059,45.6135702 L61.8847059,48.731972 L61.8847059,50.8109064 L19.279368,50.8109064 L19.279368,4.34672066 L50.8237047,4.34672066 C51.4146624,4.35519634 51.9643387,4.04006896 52.2622545,3.52200537 C52.5601704,3.00394179 52.5601704,2.36320435 52.2622545,1.84514077 C51.9643387,1.32707718 51.4146624,1.0119498 50.8237047,1.02042548 L17.6407012,1.02042548 C17.4710613,0.993191507 17.2982577,0.993191507 17.1286178,1.02042548 C16.4267365,1.25381166 15.9653997,1.93487198 16.0020343,2.68357307 Z M58.8,89.8372016 L24.9,89.8372016 C23.9,89.8372016 23.1,89.0372016 23.1,88.0372016 C23.1,87.0372016 23.9,86.2372016 24.9,86.2372016 L40,86.2372016 L40,81.1372016 C40,80.1372016 40.8,79.3372016 41.8,79.3372016 C42.8,79.3372016 43.6,80.1372016 43.6,81.1372016 L43.6,86.2372016 L58.7,86.2372016 C59.7,86.2372016 60.5,87.0372016 60.5,88.0372016 C60.5,89.0372016 59.8,89.8372016 58.8,89.8372016 L58.8,89.8372016 Z M2.2,55.1372016 C3.2,55.1372016 4,54.3372016 4,53.3372016 L4,19.6372016 C4,19.2372016 4.3,18.9372016 4.7,18.9372016 L11,18.9372016 C12,18.9372016 12.8,18.1372016 12.8,17.1372016 C12.8,16.1372016 12,15.3372016 11,15.3372016 L4.7,15.3372016 C2.3,15.3372016 0.4,17.2372016 0.4,19.6372016 L0.4,53.2372016 C0.4,54.2372016 1.2,55.1372016 2.2,55.1372016 L2.2,55.1372016 Z M0,60.7372016 C0,61.1372016 0.1,61.5372016 0.3,61.7372016 L0.3,70.9372016 C0.3,73.3372016 2.2,75.2372016 4.6,75.2372016 L79,75.2372016 C81.4,75.2372016 83.3,73.3372016 83.3,70.9372016 L83.3,19.6372016 C83.3,17.2372016 81.4,15.3372016 79,15.3372016 L70.9,15.3372016 C69.9,15.3372016 69.1,16.1372016 69.1,17.1372016 C69.1,18.1372016 69.9,18.9372016 70.9,18.9372016 L79,18.9372016 C79.4,18.9372016 79.7,19.2372016 79.7,19.6372016 L79.7,70.8372016 C79.7,71.2372016 79.4,71.5372016 79,71.5372016 L4.7,71.5372016 C4.3,71.5372016 4,71.2372016 4,70.8372016 L4,62.4372016 L74,62.4372016 C75,62.4372016 75.8,61.6372016 75.8,60.6372016 C75.8,59.6372016 75,58.8372016 74,58.8372016 L1.8,58.8372016 C0.8,58.8372016 0,59.6372016 0,60.7372016 Z M56.4338835,0.00325118792 C55.6097057,0.108688274 54.9936116,0.823314707 55.00005,1.66639878 L55.00005,11.8531778 C55.0001404,12.7716708 55.7337436,13.5162336 56.6387168,13.5163254 L64.9344677,13.5163254 C65.5961269,13.5323464 66.202335,13.1428596 66.4711367,12.5290204 C66.7399384,11.9151812 66.6185646,11.1974936 66.1634678,10.7097638 L57.9701336,0.626931534 C57.6478331,0.21787441 57.1545197,-0.0132101658 56.6387168,0.00325118792 C56.5705058,-0.00108372931 56.5020945,-0.00108372931 56.4338835,0.00325118792 L56.4338835,0.00325118792 Z M39.4,66.8372016 C39.4,68.2372016 40.5,69.2372016 41.8,69.2372016 C43.1,69.2372016 44.2,68.1372016 44.2,66.8372016 C44.2,65.4372016 43.1,64.4372016 41.8,64.4372016 C40.5,64.4372016 39.4,65.5372016 39.4,66.8372016 Z M58,7 L61.174917,10.8460288 L58,10.8460288 L58,7 Z M26,11 L26,14.3262952 L48.9413358,14.3262952 L48.9413358,11 L26,11 Z M26,21 L26,24.3262952 L55.4960031,24.3262952 L55.4960031,21 L26,21 Z M26,31 L26,34.3262952 L55.4960031,34.3262952 L55.4960031,31 L26,31 Z M26,41 L26,44.3262952 L55.4960031,44.3262952 L55.4960031,41 L26,41 Z" id="develop" fill="#000000"></path>
    </g>
</svg>