<?xml version="1.0" encoding="UTF-8" standalone="no"?>
<svg width="101px" height="100px" viewBox="0 0 101 100" version="1.1" xmlns="http://www.w3.org/2000/svg" xmlns:xlink="http://www.w3.org/1999/xlink">
    <!-- Generator: Sketch 3.7.2 (28276) - http://www.bohemiancoding.com/sketch -->
    <title>js</title>
    <desc>Created with Sketch.</desc>
    <defs></defs>
    <g id="Page-1" stroke="none" stroke-width="1" fill="none" fill-rule="evenodd">
        <g id="js" fill="#000000">
            <path d="M14.5930943,95 L14.621895,95 L14.621895,100 L4.61921855,100 C2.41155774,100 0.621895046,98.2004701 0.621895046,96.0026765 L0.621895046,3.99732351 C0.621895046,1.78966269 2.42142495,0 4.61921855,0 L96.6245715,0 C98.8322324,0 100.621895,1.79952991 100.621895,3.99732351 L100.621895,96.0026765 C100.621895,98.2103373 98.8223651,100 96.6245715,100 L60.621895,100 L60.621895,95 L60.6401743,95 C60.6211147,92.7932789 59.6364694,87.6804855 57.710932,87.0931615 C47.0529976,83.8422976 42.8103001,80.3450252 41.2926431,77.6170552 C40.1888926,78.0477873 38.9471733,78.1913647 37.7054539,78.1913647 L37.4295163,78.1913647 L37.1535787,78.1913647 C36.0498282,78.1913647 34.9460776,78.0477873 33.9802959,77.7606326 C32.3246702,80.4886026 28.0652766,83.9147962 17.562007,87.0931615 C15.0883169,87.841718 14.5997252,91.9039105 14.5930943,95 Z M9.447385,95 L5.62189505,95 L5.62189505,5 L95.621895,5 L95.621895,95 L65.627701,95 C65.6276959,94.9980485 65.6276934,94.9960954 65.6276934,94.9941406 C65.6276934,88.2336426 63.6435911,83.3601499 58.9526514,82.0679536 C50.3985849,79.7707157 46.9493645,77.0427457 45.845614,75.3198173 C46.3974892,74.8890852 46.9493645,74.3147757 47.5012398,73.7404662 C52.7440547,67.5666394 51.9162418,57.2290688 51.778273,56.0804498 C51.2263978,43.8763735 42.5343624,40.8612487 37.4295163,41.0048261 C32.3246702,40.8612487 23.6326348,43.8763735 23.0807596,56.0804498 C22.9427908,57.2290688 22.1149779,67.5666394 27.3577928,73.7404662 C27.9096681,74.4583531 28.5995122,75.0326625 29.2893562,75.606972 C28.1856057,77.0427457 25.012323,79.7707157 16.3202877,82.0679536 C11.6431901,83.3563369 9.59617605,87.749118 9.447385,95 Z M27.6963982,56.3375706 L27.6963982,56.1939932 C28.1103046,46.7178868 34.7328077,46 36.6643712,46 L36.9403088,46 L37.0782776,46 C38.5959346,46 45.9082817,46.1435774 46.3221882,56.1939932 L46.3221882,56.3375706 C46.3221882,56.4811479 47.1500011,65.3829448 43.2868742,70.120998 C41.7692173,71.8439264 39.6996851,72.7053906 37.0782776,72.848968 L36.9403088,72.848968 C34.3189013,72.848968 32.2493691,71.9875038 30.7317121,70.120998 C26.8685853,65.5265222 27.6963982,56.4811479 27.6963982,56.3375706 Z" id="Combined-Shape-Copy-3"></path>
            <text id="JS" font-family="Lato-Bold, Lato" font-size="30" font-weight="bold">
                <tspan x="61.416895" y="34">JS</tspan>
            </text>
        </g>
    </g>
</svg>