<?xml version="1.0" encoding="UTF-8" standalone="no"?>
<svg width="100px" height="100px" viewBox="0 0 100 100" version="1.1" xmlns="http://www.w3.org/2000/svg" xmlns:xlink="http://www.w3.org/1999/xlink">
    <!-- Generator: Sketch 3.7.2 (28276) - http://www.bohemiancoding.com/sketch -->
    <title>Shape</title>
    <desc>Created with Sketch.</desc>
    <defs></defs>
    <g id="Page-1" stroke="none" stroke-width="1" fill="none" fill-rule="evenodd">
        <path d="M2.43013366,100 L97.8128797,100 C99.0279465,100 100,99.0243902 100,97.804878 L100,90.1219512 C100,88.902439 99.0279465,87.9268293 97.8128797,87.9268293 L94.5321993,87.9268293 L94.5321993,38.0487805 C94.5321993,33.7804878 91.1300122,30.3658537 86.8772783,30.3658537 L72.417983,30.3658537 C71.2029162,30.3658537 70.2308627,31.3414634 70.2308627,32.5609756 C70.2308627,33.7804878 71.2029162,34.7560976 72.417983,34.7560976 L86.8772783,34.7560976 C88.6998785,34.7560976 90.036452,36.2195122 90.036452,37.9268293 L90.036452,87.804878 L82.6245443,87.804878 C81.7739976,80.7317073 75.8201701,75.1219512 68.5297691,75.1219512 C67.3147023,75.1219512 66.3426488,76.097561 66.3426488,77.3170732 C66.3426488,78.5365854 67.3147023,79.5121951 68.5297691,79.5121951 C73.3900365,79.5121951 77.399757,83.0487805 78.1287971,87.6829268 L66.8286756,87.6829268 C66.0996355,80.3658537 60.5103281,74.3902439 53.2199271,73.2926829 L53.2199271,53.902439 C53.2199271,52.6829268 52.2478736,51.7073171 51.0328068,51.7073171 C49.81774,51.7073171 48.8456865,52.6829268 48.8456865,53.902439 L48.8456865,73.2926829 C41.3122722,74.1463415 35.3584447,80.2439024 34.6294046,87.804878 L23.2077764,87.804878 C23.9368165,83.1707317 27.9465371,79.6341463 32.8068044,79.6341463 C34.0218712,79.6341463 34.9939247,78.6585366 34.9939247,77.4390244 C34.9939247,76.2195122 34.0218712,75.2439024 32.8068044,75.2439024 C25.5164034,75.2439024 19.5625759,80.7317073 18.7120292,87.9268293 L10.4495747,87.9268293 L10.4495747,38.0487805 C10.4495747,36.2195122 11.9076549,34.8780488 13.6087485,34.8780488 L30.0121507,34.8780488 C31.2272175,34.8780488 32.199271,33.902439 32.199271,32.6829268 C32.199271,31.4634146 31.2272175,30.4878049 30.0121507,30.4878049 L13.6087485,30.4878049 C9.35601458,30.4878049 5.95382746,33.902439 5.95382746,38.1707317 L5.95382746,87.804878 L2.18712029,87.804878 C0.972053463,87.804878 -3.55271368e-14,88.7804878 -3.55271368e-14,90 L-3.55271368e-14,97.6829268 C0.243013366,99.0243902 1.21506683,100 2.43013366,100 L2.43013366,100 Z M52.126367,77.6829268 C57.472661,78.2926829 61.7253949,82.4390244 62.454435,87.804878 L39.2466586,87.804878 C39.9756987,82.3170732 44.5929526,77.9268293 50.18226,77.6829268 L52.126367,77.6829268 Z M4.73876063,92.3170732 L8.5054678,92.3170732 L92.5880923,92.3170732 L95.8687728,92.3170732 L95.8687728,95.6097561 L4.86026731,95.6097561 L4.86026731,92.3170732 L4.73876063,92.3170732 Z M51.2758202,20.6097561 C47.2660996,20.6097561 44.1069259,23.902439 44.1069259,27.804878 C44.1069259,31.8292683 47.3876063,35 51.2758202,35 C55.164034,35 58.4447145,31.7073171 58.4447145,27.804878 C58.4447145,23.7804878 55.164034,20.6097561 51.2758202,20.6097561 L51.2758202,20.6097561 Z M51.2758202,30.6097561 C49.6962333,30.6097561 48.4811665,29.3902439 48.4811665,27.804878 C48.4811665,26.2195122 49.6962333,25 51.2758202,25 C52.855407,25 54.0704739,26.2195122 54.0704739,27.804878 C54.0704739,29.3902439 52.7339004,30.6097561 51.2758202,30.6097561 L51.2758202,30.6097561 Z M58.4447145,71.2195122 L58.4447145,62.3170732 C57.2296476,62.3170732 56.3791009,61.3414634 56.3791009,60.1219512 C56.3791009,58.902439 57.3511543,57.9268293 58.5662211,57.9268293 L67.1931956,57.9268293 L67.1931956,54.8780488 C67.1931956,54.0243902 66.9501823,53.1707317 66.4641555,52.4390244 L62.454435,46.097561 C61.6038882,44.7560976 61.1178615,43.0487805 61.1178615,41.4634146 L61.1178615,20.4878049 C61.1178615,18.4146341 60.3888214,16.4634146 59.0522479,15 L51.0328068,5.73170732 L43.1348724,15 C41.7982989,16.4634146 41.0692588,18.4146341 41.0692588,20.4878049 L41.0692588,41.3414634 C41.0692588,43.1707317 40.5832321,44.8780488 39.4896719,46.3414634 L35.1154313,52.5609756 C34.6294046,53.2926829 34.2648846,54.2682927 34.2648846,55.1219512 L34.2648846,57.9268293 L43.0133657,57.9268293 C44.2284326,57.9268293 45.200486,58.902439 45.200486,60.1219512 C45.200486,61.3414634 44.2284326,62.3170732 43.0133657,62.3170732 L42.7703524,62.3170732 L42.7703524,71.2195122 C42.7703524,72.4390244 41.7982989,73.4146341 40.5832321,73.4146341 C39.3681652,73.4146341 38.3961118,72.4390244 38.3961118,71.2195122 L38.3961118,62.3170732 L32.199271,62.3170732 C30.9842041,62.3170732 30.0121507,61.3414634 30.0121507,60.1219512 L30.0121507,55 C30.0121507,53.1707317 30.6196841,51.3414634 31.5917375,49.8780488 L35.9659781,43.6585366 C36.4520049,42.9268293 36.6950182,42.0731707 36.6950182,41.2195122 L36.6950182,20.3658537 C36.6950182,17.3170732 37.7885784,14.3902439 39.7326853,11.9512195 L49.3317132,0.731707317 C49.6962333,0.243902439 50.4252734,0 51.0328068,0 L51.0328068,0 C51.6403402,0 52.2478736,0.243902439 52.7339004,0.731707317 L62.454435,11.9512195 C64.5200486,14.2682927 65.6136087,17.3170732 65.6136087,20.3658537 L65.6136087,41.4634146 C65.6136087,42.3170732 65.8566221,43.0487805 66.2211422,43.7804878 L70.2308627,50.1219512 C71.2029162,51.5853659 71.5674362,53.2926829 71.5674362,55 L71.5674362,60.2439024 C71.5674362,61.4634146 70.5953827,62.4390244 69.3803159,62.4390244 L62.9404617,62.4390244 L62.9404617,71.3414634 C62.9404617,72.5609756 61.9684083,73.5365854 60.7533414,73.5365854 C59.5382746,73.5365854 58.4447145,72.4390244 58.4447145,71.2195122 L58.4447145,71.2195122 Z" id="Shape" fill="#000000"></path>
    </g>
</svg>