<?xml version="1.0" encoding="UTF-8" standalone="no"?>
<svg width="90px" height="85px" viewBox="0 0 90 85" version="1.1" xmlns="http://www.w3.org/2000/svg" xmlns:xlink="http://www.w3.org/1999/xlink">
    <!-- Generator: Sketch 3.7.2 (28276) - http://www.bohemiancoding.com/sketch -->
    <title>Shape</title>
    <desc>Created with Sketch.</desc>
    <defs></defs>
    <g id="Page-1" stroke="none" stroke-width="1" fill="none" fill-rule="evenodd">
        <path d="M89.999,56.264 C89.997,56.041 89.885,55.833 89.699,55.709 L67.763,41.022 C67.786,34.854 67.824,24.527 67.824,21.848 C67.824,17.818 63.586,13.231 54.866,7.827 C45.366,1.397 42.282,0.53 40.518,0.53 L35.606,0.53 C35.558,0.53 35.511,0.535 35.467,0.544 C35.465,0.544 35.462,0.545 35.46,0.546 C35.407,0.558 35.358,0.577 35.31,0.6 C35.305,0.603 35.298,0.603 35.292,0.607 C35.285,0.61 35.279,0.617 35.272,0.621 C35.231,0.644 35.194,0.672 35.159,0.702 C35.152,0.708 35.143,0.714 35.137,0.721 C35.098,0.759 35.065,0.801 35.036,0.846 C35.029,0.857 35.023,0.868 35.016,0.88 C34.995,0.918 34.978,0.957 34.965,0.999 C34.961,1.013 34.956,1.026 34.952,1.041 C34.938,1.095 34.929,1.149 34.929,1.207 L34.929,16.77 C32.675,15.032 29.853,13.995 26.792,13.995 L26.792,15.346 C33.392,15.346 38.764,20.7 38.796,27.292 C38.763,31.223 35.557,34.411 31.619,34.411 C29.564,34.411 27.892,36.082 27.892,38.137 L27.892,44.885 C27.892,46.678 26.434,48.136 24.641,48.136 C19.206,48.136 14.785,43.715 14.785,38.281 L14.785,27.352 C14.785,20.732 20.171,15.346 26.791,15.346 L26.791,13.995 C19.426,13.995 13.433,19.987 13.433,27.352 L13.433,32.318 L6.346,37.584 C2.665,38.806 0,42.281 0,46.369 L0,56.058 C0,59.556 1.839,63.93 3.936,65.419 C5.763,66.717 7.493,67.874 7.675,67.992 L7.678,67.994 L30.684,82.838 L30.68,82.844 C30.718,82.866 30.756,82.886 30.794,82.908 L30.854,82.947 L30.856,82.944 C32.292,83.783 33.925,84.229 35.599,84.229 C37.665,84.229 39.68,83.544 41.315,82.294 C41.888,82.433 42.485,82.509 43.1,82.509 C44.553,82.509 45.962,82.095 47.178,81.31 C47.187,81.305 47.193,81.297 47.201,81.291 L47.203,81.293 L56.396,74.913 L60.448,77.31 L60.448,77.909 L60.482,77.909 L60.482,77.33 L61.779,78.098 L61.781,78.095 C61.791,78.101 61.8,78.11 61.811,78.116 C61.909,78.168 62.017,78.193 62.123,78.193 C62.259,78.193 62.394,78.152 62.509,78.072 L89.711,59.133 C89.893,59.007 90.001,58.8 90.001,58.578 L90.001,56.27 L90,56.27 C89.998,56.268 89.999,56.266 89.999,56.264 L89.999,56.264 Z M88.125,56.281 L62.262,74.321 L59.571,72.708 L60.259,72.23 C61.689,71.275 62.622,69.523 62.773,67.572 C63.38,67.182 64.844,66.239 66.035,65.445 C68,64.135 68.915,62.596 68.915,60.603 C68.915,59.379 68.218,58.1 66.902,57.518 C67.388,55.516 70.133,53.969 70.709,53.665 C72.361,52.79 73.11,51.252 72.617,49.743 C72.079,48.094 70.299,47.191 68.651,47.728 L68.655,47.743 C68.048,47.991 67.38,47.991 66.773,47.74 C66.507,47.63 66.27,47.476 66.062,47.29 L67.46,46.296 C67.638,46.17 67.744,45.966 67.744,45.748 C67.744,45.7 67.749,44.495 67.756,42.644 L88.125,56.281 L88.125,56.281 Z M67.564,60.604 C67.564,62.125 66.861,63.272 65.285,64.322 C64.432,64.891 63.435,65.538 62.719,66.001 C62.398,63.915 61.101,62.147 59.312,61.177 C59.912,60.776 60.824,60.159 61.7,59.539 C62.994,58.623 64.14,58.548 65.298,58.548 C65.928,58.547 67.564,58.917 67.564,60.604 L67.564,60.604 Z M40.518,1.881 C42.699,1.881 46.894,4.062 54.12,8.954 C54.127,8.959 54.135,8.964 54.143,8.969 C62.21,13.967 66.473,18.421 66.473,21.849 C66.473,25.433 66.405,42.721 66.395,45.397 L64.348,46.852 L64.183,46.92 C64.188,46.933 64.195,46.944 64.201,46.956 L63.432,47.502 L63.432,19.955 C63.432,19.733 63.323,19.525 63.14,19.399 L37.774,1.881 L40.518,1.881 L40.518,1.881 Z M38.771,5.968 C38.564,5.825 38.295,5.809 38.073,5.926 C37.85,6.042 37.711,6.273 37.711,6.524 L37.711,19.67 C37.282,19.062 36.804,18.489 36.282,17.961 L36.282,2.493 L62.081,20.31 L62.081,47.515 L39.052,31.412 C39.306,30.962 39.52,30.488 39.69,29.992 L59.053,43.243 C59.168,43.322 59.302,43.361 59.435,43.361 C59.542,43.361 59.651,43.335 59.75,43.283 C59.972,43.166 60.11,42.936 60.11,42.686 L60.11,21.06 C60.11,20.838 60.001,20.631 59.818,20.504 L38.771,5.968 L38.771,5.968 Z M40.149,27.292 C40.149,27.272 40.15,27.252 40.15,27.232 L40.147,27.232 C40.131,25.403 39.746,23.661 39.063,22.077 L39.063,7.812 L58.759,21.415 L58.759,41.404 L40.041,28.594 C40.106,28.188 40.142,27.774 40.147,27.351 L40.15,27.351 C40.151,27.332 40.149,27.312 40.149,27.292 L40.149,27.292 Z M37.825,33.076 C37.99,32.902 38.146,32.721 38.296,32.534 L62.368,49.366 C62.39,49.382 62.414,49.395 62.438,49.408 C62.444,49.41 62.449,49.415 62.454,49.417 C62.496,49.438 62.539,49.453 62.584,49.464 C62.595,49.467 62.605,49.47 62.616,49.472 C62.662,49.482 62.708,49.489 62.755,49.489 L62.755,49.489 L62.755,49.489 C62.802,49.489 62.85,49.482 62.898,49.472 C62.908,49.47 62.918,49.468 62.927,49.465 C62.973,49.453 63.018,49.436 63.062,49.414 C63.063,49.413 63.065,49.413 63.066,49.412 C63.069,49.41 63.072,49.408 63.075,49.406 C63.098,49.393 63.122,49.381 63.145,49.364 L64.941,48.088 C65.306,48.474 65.75,48.783 66.255,48.992 C66.726,49.186 67.22,49.283 67.715,49.283 C68.214,49.283 68.712,49.184 69.185,48.988 L69.184,48.985 C70.09,48.755 71.035,49.263 71.33,50.165 C71.754,51.466 70.476,52.26 70.074,52.473 C69.133,52.972 66.192,54.708 65.584,57.211 C65.489,57.205 65.394,57.197 65.294,57.197 C64.023,57.197 62.532,57.293 60.916,58.437 C59.466,59.463 57.904,60.489 57.889,60.499 L57.98,60.637 C57.401,60.471 56.791,60.381 56.159,60.381 C54.783,60.381 53.463,60.798 52.331,61.596 L46.93,65.555 C46.613,63.252 45.821,61.038 44.59,59.054 C44.579,59.037 44.568,59.021 44.556,59.005 C43.875,58.097 42.491,56.617 40.889,54.904 C39.543,53.466 37.755,51.552 36.278,49.811 L50.059,59.927 C50.178,60.014 50.319,60.058 50.458,60.058 C50.59,60.058 50.722,60.02 50.836,59.942 L59.352,54.203 C59.536,54.078 59.647,53.872 59.65,53.649 C59.652,53.427 59.546,53.218 59.363,53.089 L37.825,37.894 L37.825,33.076 L37.825,33.076 Z M36.779,42.348 L53.836,54.315 C53.954,54.398 54.089,54.438 54.223,54.438 C54.435,54.438 54.645,54.337 54.777,54.15 C54.992,53.844 54.918,53.423 54.612,53.209 L37.324,41.079 C37.502,40.563 37.636,40.027 37.72,39.473 L57.787,53.627 L50.478,58.553 L33.699,46.237 C33.638,46.101 33.594,45.976 33.567,45.865 C33.929,45.632 34.274,45.374 34.599,45.094 L51.014,56.611 C51.132,56.694 51.267,56.734 51.402,56.734 C51.614,56.734 51.824,56.633 51.956,56.446 C52.17,56.14 52.097,55.718 51.791,55.505 L35.571,44.124 C36.039,43.583 36.445,42.987 36.779,42.348 L36.779,42.348 Z M29.246,44.884 L29.246,38.136 C29.246,36.826 30.312,35.761 31.621,35.761 C33.422,35.761 35.095,35.198 36.474,34.24 L36.474,38.081 C36.474,42.257 33.219,45.684 29.113,45.964 C29.196,45.617 29.246,45.256 29.246,44.884 L29.246,44.884 Z M13.435,34.002 L13.435,37.114 L9.254,37.114 L9.246,37.114 L13.435,34.002 L13.435,34.002 Z M46.447,80.171 C46.446,80.172 46.444,80.172 46.443,80.173 C45.446,80.816 44.29,81.156 43.098,81.156 C39.692,81.156 36.921,78.386 36.921,74.979 L36.921,68.465 C36.921,68.091 36.619,67.789 36.245,67.789 C35.872,67.789 35.57,68.091 35.57,68.465 L35.57,74.979 C35.57,77.927 37.274,80.483 39.748,81.718 C38.501,82.466 37.065,82.875 35.598,82.875 C34.152,82.875 32.741,82.487 31.504,81.757 L8.414,66.86 C8.235,66.742 6.529,65.602 4.719,64.316 C3.162,63.211 1.352,59.362 1.352,56.057 L1.352,46.368 C1.352,42.01 4.897,38.465 9.255,38.465 L13.441,38.465 C13.542,44.56 18.527,49.487 24.644,49.487 C26.307,49.487 27.762,48.597 28.571,47.272 L28.571,47.335 C29.926,47.335 31.213,47.039 32.374,46.514 C33.121,48.467 36.026,51.676 39.905,55.824 C41.467,57.493 42.817,58.937 43.461,59.788 C44.952,62.204 45.74,64.987 45.74,67.84 L45.74,67.874 L45.741,67.874 C45.744,67.931 45.756,67.985 45.772,68.037 C45.959,69.269 47.021,70.217 48.304,70.217 C48.678,70.217 48.98,69.914 48.98,69.541 C48.98,69.168 48.678,68.865 48.304,68.865 C47.637,68.865 47.092,68.321 47.092,67.653 L47.092,67.543 L47.089,67.543 C47.087,67.402 47.081,67.262 47.075,67.122 L53.123,62.69 C54.016,62.061 55.066,61.729 56.162,61.729 C59.076,61.729 61.446,64.099 61.446,67.012 C61.446,68.713 60.685,70.319 59.498,71.112 L46.447,80.171 L46.447,80.171 Z M58.352,73.553 L61.445,75.407 L61.445,76.331 L57.615,74.065 L58.352,73.553 L58.352,73.553 Z M62.797,76.222 L62.797,75.596 L88.648,57.566 L88.648,58.225 L62.797,76.222 L62.797,76.222 Z" id="Shape" fill="#000000"></path>
    </g>
</svg>