<?xml version="1.0" encoding="UTF-8" standalone="no"?>
<svg width="100px" height="100px" viewBox="0 0 100 100" version="1.1" xmlns="http://www.w3.org/2000/svg" xmlns:xlink="http://www.w3.org/1999/xlink">
    <!-- Generator: Sketch 3.7.2 (28276) - http://www.bohemiancoding.com/sketch -->
    <title>team</title>
    <desc>Created with Sketch.</desc>
    <defs></defs>
    <g id="Page-1" stroke="none" stroke-width="1" fill="none" fill-rule="evenodd">
        <g id="svg" fill="#000000">
            <path d="M13.9711993,95 L14,95 L14,100 L3.99732351,100 C1.78966269,100 0,98.2004701 0,96.0026765 L0,3.99732351 C0,1.78966269 1.79952991,0 3.99732351,0 L96.0026765,0 C98.2103373,0 100,1.79952991 100,3.99732351 L100,96.0026765 C100,98.2103373 98.2004701,100 96.0026765,100 L60,100 L60,95 L60.0182792,95 C59.9992197,92.7932789 59.0145744,87.6804855 57.089037,87.0931615 C46.4311025,83.8422976 42.188405,80.3450252 40.6707481,77.6170552 C39.5669975,78.0477873 38.3252782,78.1913647 37.0835589,78.1913647 L36.8076213,78.1913647 L36.5316836,78.1913647 C35.4279331,78.1913647 34.3241826,78.0477873 33.3584009,77.7606326 C31.7027751,80.4886026 27.4433816,83.9147962 16.940112,87.0931615 C14.4664219,87.841718 13.9778301,91.9039105 13.9711993,95 Z M8.82548995,95 L5,95 L5,5 L95,5 L95,95 L65.005806,95 C65.0058009,94.9980485 65.0057983,94.9960954 65.0057983,94.9941406 C65.0057983,88.2336426 63.021696,83.3601499 58.3307563,82.0679536 C49.7766898,79.7707157 46.3274695,77.0427457 45.2237189,75.3198173 C45.7755942,74.8890852 46.3274695,74.3147757 46.8793447,73.7404662 C52.1221597,67.5666394 51.2943468,57.2290688 51.156378,56.0804498 C50.6045027,43.8763735 41.9124674,40.8612487 36.8076213,41.0048261 C31.7027751,40.8612487 23.0107398,43.8763735 22.4588645,56.0804498 C22.3208957,57.2290688 21.4930828,67.5666394 26.7358978,73.7404662 C27.287773,74.4583531 27.9776171,75.0326625 28.6674612,75.606972 C27.5637107,77.0427457 24.3904279,79.7707157 15.6983926,82.0679536 C11.021295,83.3563369 8.974281,87.749118 8.82548995,95 Z M27.4257419,56.5111819 L27.4257419,56.3676046 C27.8396483,46.8914982 34.4621514,46.1736114 36.3937148,46.1736114 L36.6696524,46.1736114 L36.8076213,46.1736114 C38.3252782,46.1736114 45.6376254,46.3171888 46.0515318,56.3676046 L46.0515318,56.5111819 C46.0515318,56.6547593 46.8793447,65.5565562 43.0162179,70.2946094 C41.4985609,72.0175378 39.4290287,72.879002 36.8076213,73.0225794 L36.6696524,73.0225794 C34.048245,73.0225794 31.9787127,72.1611152 30.4610558,70.2946094 C26.597929,65.7001336 27.4257419,56.6547593 27.4257419,56.5111819 Z" id="team"></path>
        </g>
    </g>
</svg>